<svg width="25" height="25" viewBox="0 0 25 25" fill="none" xmlns="http://www.w3.org/2000/svg">
<path fill-rule="evenodd" clip-rule="evenodd" d="M17.4483 2.74386V3.77876C20.457 4.07065 21.9961 5.73355 21.9961 8.72324V16.9935C21.9961 20.3193 20.1004 22.0088 16.37 22.0088H9.62218C5.89175 22.0088 3.99609 20.3193 3.99609 16.9935V8.72324C3.99609 6.73307 4.67435 5.30898 6.06566 4.47753C6.28498 4.32783 6.56872 4.31738 6.79811 4.45055C7.0275 4.58373 7.16296 4.83755 7.14779 5.10577C7.13261 5.37399 6.96942 5.61034 6.72653 5.71586C5.80479 6.26427 5.37001 7.21955 5.37001 8.72324V8.9886H18.057C18.4364 8.9886 18.7439 9.30145 18.7439 9.68738C18.7439 10.0733 18.4364 10.3861 18.057 10.3861H5.37001V16.9935C5.37001 19.5321 6.60479 20.5847 9.62218 20.6024H16.37C19.3439 20.6024 20.6135 19.5233 20.6135 16.9847V8.7144C20.6135 6.50309 19.6483 5.43282 17.4483 5.1763V5.84854C17.3975 6.20685 17.0891 6.46843 16.7335 6.45478C16.3779 6.44112 16.0897 6.15665 16.0657 5.79547V2.68195C16.0724 2.49497 16.1526 2.31856 16.2882 2.1922C16.4239 2.06585 16.6037 2.00011 16.7874 2.00971C17.1661 2.0334 17.4584 2.35802 17.4483 2.74386ZM9.70487 6.30158C9.57415 6.43288 9.39718 6.50546 9.21349 6.50309C8.83749 6.49344 8.53904 6.17802 8.54392 5.79547V2.74386C8.58345 2.38588 8.88108 2.11524 9.23522 2.11524C9.58937 2.11524 9.887 2.38588 9.92653 2.74386V3.708H13.857C14.2364 3.708 14.5439 4.02085 14.5439 4.40677C14.5439 4.79269 14.2364 5.10554 13.857 5.10554H9.90914V5.80432C9.90915 5.99119 9.83558 6.17028 9.70487 6.30158ZM17.1874 12.624C16.7072 12.624 16.3178 13.02 16.3178 13.5085C16.3178 13.997 16.7072 14.393 17.1874 14.393C17.6676 14.393 18.057 13.997 18.057 13.5085C18.057 13.2724 17.9642 13.0461 17.7992 12.8799C17.6342 12.7138 17.4108 12.6216 17.1787 12.624H17.1874ZM12.1439 13.5085C12.1439 13.02 12.5332 12.624 13.0135 12.624C13.4937 12.624 13.883 13.02 13.883 13.5085C13.883 13.997 13.4937 14.393 13.0135 14.393C12.5332 14.393 12.1439 13.997 12.1439 13.5085ZM8.84827 12.624C8.36802 12.624 7.9787 13.02 7.9787 13.5085C7.9787 13.997 8.36802 14.393 8.84827 14.393C9.32852 14.393 9.71783 13.997 9.71783 13.5085C9.71784 13.2724 9.62504 13.0461 9.46008 12.8799C9.29512 12.7138 9.0717 12.6216 8.83957 12.624H8.84827ZM16.3178 17.0908C16.3178 16.6023 16.7072 16.2063 17.1874 16.2063H17.1787C17.4108 16.204 17.6342 16.2961 17.7992 16.4622C17.9642 16.6284 18.057 16.8547 18.057 17.0908C18.057 17.5793 17.6676 17.9754 17.1874 17.9754C16.7072 17.9754 16.3178 17.5793 16.3178 17.0908ZM13.0135 16.2063C12.5332 16.2063 12.1439 16.6023 12.1439 17.0908C12.1439 17.5793 12.5332 17.9754 13.0135 17.9754C13.4937 17.9754 13.883 17.5793 13.883 17.0908C13.883 16.6023 13.4937 16.2063 13.0135 16.2063ZM7.9787 17.0908C7.9787 16.6023 8.36802 16.2063 8.84827 16.2063H8.83957C9.0717 16.204 9.29512 16.2961 9.46008 16.4622C9.62504 16.6284 9.71784 16.8547 9.71783 17.0908C9.71783 17.5793 9.32852 17.9754 8.84827 17.9754C8.36802 17.9754 7.9787 17.5793 7.9787 17.0908Z" fill="#616164"/>
</svg>
