<svg width="28" height="25" viewBox="0 0 28 25" fill="none" xmlns="http://www.w3.org/2000/svg">
<path fill-rule="evenodd" clip-rule="evenodd" d="M18.7258 5.21336C17.897 5.21336 17.1022 5.5426 16.5161 6.12865C15.9301 6.7147 15.6008 7.50955 15.6008 8.33836C15.6008 9.16716 15.9301 9.96201 16.5161 10.5481C17.1022 11.1341 17.897 11.4634 18.7258 11.4634C19.5546 11.4634 20.3495 11.1341 20.9355 10.5481C21.5216 9.96201 21.8508 9.16716 21.8508 8.33836C21.8508 7.50955 21.5216 6.7147 20.9355 6.12865C20.3495 5.5426 19.5546 5.21336 18.7258 5.21336ZM13.5175 8.33836C13.5175 7.48935 13.7251 6.65322 14.1221 5.90277C14.5191 5.15232 15.0936 4.51031 15.7955 4.03263C16.4973 3.55496 17.3053 3.2561 18.1491 3.16209C18.9929 3.06809 19.8469 3.18177 20.6367 3.49326C21.4265 3.80474 22.1282 4.30458 22.6806 4.94924C23.2331 5.59391 23.6196 6.36385 23.8064 7.19204C23.9933 8.02022 23.9749 8.88153 23.7528 9.70096C23.5307 10.5204 23.1116 11.2731 22.5321 11.8936C24.2992 12.4684 25.827 13.611 26.8779 15.1436C27.0245 15.3719 27.0762 15.6484 27.0221 15.9142C26.968 16.1801 26.8122 16.4143 26.5881 16.5671C26.3639 16.7199 26.0889 16.7792 25.8217 16.7324C25.5544 16.6856 25.316 16.5364 25.1571 16.3165C24.1404 14.8248 22.2862 13.5467 19.7675 13.5467C15.7737 13.5467 13.5175 16.7488 13.5175 18.755C13.5175 19.0313 13.4078 19.2962 13.2124 19.4916C13.017 19.6869 12.7521 19.7967 12.4758 19.7967C12.1996 19.7967 11.9346 19.6869 11.7393 19.4916C11.5439 19.2962 11.4342 19.0313 11.4342 18.755C11.4342 18.0342 11.5987 17.2654 11.9133 16.5081C11.8315 16.4552 11.7576 16.391 11.6935 16.3175C10.8383 15.3446 9.51125 14.5884 7.78833 14.5884C6.06541 14.5884 4.73833 15.3446 3.88312 16.3175C3.69794 16.5142 3.44359 16.6313 3.17374 16.644C2.90389 16.6567 2.63965 16.5641 2.43678 16.3857C2.23392 16.2073 2.10829 15.9571 2.08643 15.6878C2.06456 15.4185 2.14816 15.1513 2.31958 14.9425C2.9347 14.2424 3.6806 13.6692 4.51541 13.255C3.84844 12.6041 3.39064 11.7691 3.20048 10.8568C3.01033 9.94442 3.09645 8.99609 3.44785 8.13292C3.79924 7.26974 4.39997 6.53091 5.17328 6.01078C5.9466 5.49065 6.85741 5.21285 7.78937 5.21285C8.72133 5.21285 9.63214 5.49065 10.4055 6.01078C11.1788 6.53091 11.7795 7.26974 12.1309 8.13292C12.4823 8.99609 12.5684 9.94442 12.3783 10.8568C12.1881 11.7691 11.7303 12.6041 11.0633 13.255C11.786 13.6137 12.4428 14.092 13.006 14.6696C13.7135 13.7794 14.5936 13.0413 15.5935 12.4998C14.9482 12.0149 14.4247 11.3864 14.0644 10.6641C13.704 9.94181 13.5168 9.14554 13.5175 8.33836ZM5.18416 9.90086C5.18416 9.21019 5.45853 8.54781 5.94691 8.05943C6.43528 7.57106 7.09766 7.29669 7.78833 7.29669C8.479 7.29669 9.14138 7.57106 9.62975 8.05943C10.1181 8.54781 10.3925 9.21019 10.3925 9.90086C10.3925 10.5915 10.1181 11.2539 9.62975 11.7423C9.14138 12.2307 8.479 12.505 7.78833 12.505C7.09766 12.505 6.43528 12.2307 5.94691 11.7423C5.45853 11.2539 5.18416 10.5915 5.18416 9.90086Z" fill="#201F25"/>
</svg>
