<svg width="25" height="25" viewBox="0 0 25 25" fill="none" xmlns="http://www.w3.org/2000/svg">
<rect width="23.9998" height="24" transform="translate(0.996094 0.00878906)" fill="white"/>
<path fill-rule="evenodd" clip-rule="evenodd" d="M7.66206 8.00887C7.66206 12.4533 12.9953 16.4533 12.9953 16.4533C12.9953 16.4533 18.3286 12.4533 18.3286 8.00887C18.3286 5.06335 15.9408 2.67554 12.9953 2.67554C10.0499 2.67554 7.66206 5.06335 7.66206 8.00887ZM12.9953 18.0089C12.9961 18.0089 12.984 18.0004 12.9603 17.9838C12.6923 17.7953 10.9333 16.5588 9.29438 14.6755H7.01035C6.56314 14.6755 6.14571 14.8997 5.89875 15.2726L2.36625 20.6059C2.22165 20.8243 2.14453 21.0803 2.14453 21.3422C2.14453 22.0786 2.74148 22.6755 3.47785 22.6755H22.4978C22.762 22.6755 23.0202 22.597 23.2397 22.4501C23.8515 22.0404 24.0154 21.2122 23.6057 20.6003L20.0345 15.267C19.787 14.8974 19.3715 14.6755 18.9267 14.6755H16.6963C15.0574 16.5588 13.2984 17.7953 13.0304 17.9838C13.0067 18.0004 12.9946 18.0089 12.9953 18.0089ZM7.66206 21.3422V20.0089H18.3286V21.3422H7.66206ZM12.9953 10.0089C14.0999 10.0089 14.9953 9.11344 14.9953 8.00887C14.9953 6.9043 14.0999 6.00887 12.9953 6.00887C11.8908 6.00887 10.9954 6.9043 10.9954 8.00887C10.9954 9.11344 11.8908 10.0089 12.9953 10.0089Z" fill="#616164"/>
</svg>
