<svg width="15" height="15" viewBox="0 0 15 15" fill="none" xmlns="http://www.w3.org/2000/svg">
<path fill-rule="evenodd" clip-rule="evenodd" d="M8.71438 6.28569V1.8333C8.71438 1.16267 8.17072 0.619019 7.50009 0.619019C6.82946 0.619019 6.28581 1.16267 6.28581 1.8333V6.28569H1.83343C1.16279 6.28569 0.619141 6.82934 0.619141 7.49997C0.619141 8.1706 1.16279 8.71426 1.83343 8.71426H6.28581V13.1666C6.28581 13.8373 6.82946 14.3809 7.50009 14.3809C8.17072 14.3809 8.71438 13.8373 8.71438 13.1666V8.71426H13.1668C13.8374 8.71426 14.381 8.1706 14.381 7.49997C14.381 6.82934 13.8374 6.28569 13.1668 6.28569H8.71438Z" fill="#6D778B"/>
</svg>
