<svg width="25" height="25" viewBox="0 0 25 25" fill="none" xmlns="http://www.w3.org/2000/svg">
<path d="M11.4329 18.0594C12.5672 18.0594 13.5727 17.3258 13.9219 16.2453C13.9454 16.1727 13.9126 16.0953 13.8422 16.0625C13.7719 16.0321 13.6899 16.0578 13.6524 16.1235C13.6477 16.1305 13.2493 16.775 11.6907 16.986C11.468 17.0164 11.2407 17.0328 11.0157 17.0328C9.92584 17.0328 9.43834 16.6203 9.43365 16.618C9.3774 16.5688 9.29537 16.5688 9.23678 16.6157C9.18053 16.6625 9.16647 16.7469 9.20631 16.8102C9.68444 17.5789 10.5352 18.0571 11.4329 18.0594Z" fill="#616164"/>
<path d="M17.9629 9.48169C16.9424 6.71944 14.3007 4.74546 11.1924 4.74546C8.09741 4.74546 5.46245 6.70158 4.43526 9.44596C4.38167 9.38567 4.32585 9.32761 4.26555 9.27625C4.84837 5.93119 7.72673 3.38778 11.1968 3.38778C14.6513 3.38778 17.5207 5.90663 18.1237 9.22712C18.0611 9.30751 18.0075 9.39237 17.9629 9.48169ZM19.4054 8.57731C19.392 8.57731 19.3808 8.57955 19.3675 8.57955C18.4988 4.81691 15.1761 2.01001 11.1946 2.01001C7.10372 2.01001 3.70507 4.97322 2.95254 8.89217C2.20448 9.03062 1.65962 9.68489 1.66409 10.4464V13.5614C1.66409 14.4345 2.36526 15.1424 3.22943 15.1424C3.71623 15.1424 4.1472 14.9124 4.43303 14.5596C5.12527 16.3839 6.52314 17.8577 8.31402 18.6393C8.33635 18.5946 8.36314 18.5522 8.39217 18.512C8.4212 18.4763 8.45246 18.445 8.47926 18.445C8.50606 18.445 8.53285 18.454 8.55518 18.4696C8.14207 18.1614 6.65265 16.5849 6.32886 14.3809C6.18818 13.4118 6.91391 12.4583 7.76023 12.302C9.1179 12.0497 10.4689 11.7616 11.8266 11.5137C12.6907 11.3574 13.2802 10.8818 13.6398 10.0935C13.7246 9.90819 13.8474 9.53528 13.9033 8.99936C13.9167 8.91897 13.9859 8.85868 14.0685 8.85868C14.1221 8.85868 14.1712 8.88547 14.2025 8.9279L14.2404 8.90557C14.7764 9.68266 15.8371 11.4043 15.9889 13.2175C16.1631 15.292 16.0671 16.7122 14.4794 18.1659L14.4727 18.1726C14.4503 18.1972 14.4369 18.2284 14.4369 18.2619C14.4369 18.3043 14.4593 18.3445 14.495 18.3669C14.5084 18.3713 14.5218 18.3803 14.5352 18.3847C14.5464 18.387 14.5553 18.3892 14.5665 18.3914C14.5776 18.3914 14.5866 18.3892 14.5955 18.3847C14.6178 18.3736 14.6402 18.3602 14.6625 18.3468C16.2837 17.4513 17.5029 15.9708 18.0678 14.2068C18.3037 14.5543 18.6658 14.7962 19.0772 14.8811C18.4073 17.9381 15.6785 19.8541 12.3 20.1421C12.0856 19.6196 11.5765 19.2802 11.0137 19.2824C10.25 19.2824 9.62926 19.8876 9.62926 20.6334C9.62926 21.3792 10.25 21.9844 11.0137 21.9844C11.6077 21.9866 12.1369 21.607 12.3245 21.0443C16.2345 20.7272 19.3697 18.4026 20.024 14.7918C20.6202 14.5462 21.0087 13.9656 21.0087 13.3202V10.1739C21.0132 9.29188 20.2942 8.57731 19.4054 8.57731Z" fill="#616164"/>
</svg>
